#!OML:ASF F:\VICON\USERDATA\INSTALL\rory3\rory3.ASF
:FULLY-SPECIFIED
:DEGREES
273
root -0.103209 18.0311 21.0461 -5.27933 -0.588985 -4.54448
lowerback 17.8711 0.286275 4.32792
upperback 1.08081 1.69501 4.74852
thorax -8.90606 0.743758 2.26824
lowerneck -10.7861 -1.55554 -3.01721
upperneck 19.2716 -1.04522 -2.56497
head 7.73 -0.955218 -0.442856
rclavicle 2.98177e-015 3.26007e-014
rhumerus -62.6344 -41.1584 -38.8959
rradius 50.5099
rwrist -47.4151
rhand -10.3165 -3.73361
rfingers 7.12502
rthumb 15.6789 -33.1184
lclavicle 2.98177e-015 3.26007e-014
lhumerus -59.7093 17.9852 65.1605
lradius 33.8271
lwrist 8.17969
lhand -8.80343 54.6243
lfingers 7.12502
lthumb 17.1356 83.8887
rfemur 4.70874 1.08871 31.9563
rtibia 27.8656
rfoot -18.222 -17.9508
rtoes 9.0987
lfemur -24.3482 -1.29406 -15.7936
ltibia 39.2574
lfoot -6.72388 4.10636
ltoes -9.30544
274
root -0.0970442 18.0374 21.2497 -5.02081 -0.909504 -4.67257
lowerback 17.9459 0.291178 4.39022
upperback 0.919391 1.73095 4.74946
thorax -9.12454 0.755107 2.228
lowerneck -10.5468 -1.35689 -3.14842
upperneck 18.9511 -0.823945 -2.27856
head 7.58258 -0.825818 -0.301167
rclavicle 2.46493e-014 4.77083e-014
rhumerus -63.5914 -40.1845 -38.5379
rradius 52.8799
rwrist -49.1222
rhand -10.1381 -4.18885
rfingers 7.12502
rthumb 15.8507 -33.56
lclavicle 2.46493e-014 4.77083e-014
lhumerus -60.4799 18.2353 64.7088
lradius 33.0318
lwrist 7.44178
lhand -9.39989 54.3507
lfingers 7.12502
lthumb 16.5615 83.6639
rfemur 5.60239 1.44308 32.1313
rtibia 27.0636
rfoot -18.1813 -17.743
rtoes 10.7593
lfemur -24.34 -1.80414 -15.443
ltibia 36.3261
lfoot -5.98807 4.59856
ltoes -7.45201
275
root -0.0834584 18.0473 21.4537 -4.75609 -1.39138 -4.63487
lowerback 17.9504 0.312808 4.33698
upperback 0.809219 1.74659 4.65226
thorax -9.24665 0.760277 2.14975
lowerneck -10.0826 -1.19529 -3.54793
upperneck 18.3868 -0.692718 -1.62622
head 7.31784 -0.719985 -0.00336712
rclavicle -2.5345e-014 -7.95139e-015
rhumerus -64.5332 -39.5957 -37.8584
rradius 54.8452
rwrist -50.689
rhand -10.7691 -5.05097
rfingers 7.12502
rthumb 15.2429 -34.4694
lclavicle -2.5345e-014 -7.95139e-015
lhumerus -61.2154 18.7155 63.8819
lradius 32.0756
lwrist 6.49549
lhand -9.02478 53.4806
lfingers 7.12502
lthumb 16.9226 82.7634
rfemur 6.47847 1.78559 32.0265
rtibia 26.2874
rfoot -18.1777 -17.4291
rtoes 11.8705
lfemur -24.2397 -2.51631 -15.2296
ltibia 33.4024
lfoot -5.29811 5.56807
ltoes -7.86164
276
root -0.0746576 18.0494 21.6447 -4.41506 -1.83646 -4.77711
lowerback 17.8969 0.358406 4.36091
upperback 0.828234 1.80704 4.66979
thorax -9.19612 0.788829 2.13956
lowerneck -10.0367 -1.09568 -3.84473
upperneck 17.7775 -0.59435 -1.23061
head 7.11258 -0.647665 0.185445
rclavicle 1.04362e-014 -7.15625e-015
rhumerus -65.3467 -39.5102 -36.8377
rradius 56.6252
rwrist -52.7356
rhand -9.62932 -5.53386
rfingers 7.12502
rthumb 16.3406 -34.8654
lclavicle 1.04362e-014 -7.15625e-015
lhumerus -61.6962 19.4742 63.0535
lradius 30.9989
lwrist 5.21947
lhand -8.18848 51.7438
lfingers 7.12502
lthumb 17.7275 80.9558
rfemur 7.19899 2.03391 32.1528
rtibia 25.5114
rfoot -18.1497 -17.6117
rtoes 9.62462
lfemur -24.2737 -3.50545 -14.7027
ltibia 30.452
lfoot -4.25525 6.59683
ltoes -8.72971
277
root -0.0672391 18.0462 21.8273 -4.05469 -2.1235 -4.6903
lowerback 17.912 0.378481 4.16133
upperback 0.780018 1.79127 4.61024
thorax -9.26116 0.787345 2.19238
lowerneck -10.1379 -0.874837 -3.55446
upperneck 17.5064 -0.314559 -1.38758
head 7.03711 -0.504121 0.112236
rclavicle 2.11706e-014 2.38542e-015
rhumerus -66.0698 -38.9816 -36.25
rradius 58.8597
rwrist -56.3192
rhand -7.78671 -5.79325
rfingers 7.12502
rthumb 18.1141 -34.9698
lclavicle 2.11706e-014 2.38542e-015
lhumerus -62.1956 20.2527 62.0956
lradius 29.8701
lwrist 3.96919
lhand -8.63889 51.0665
lfingers 7.12502
lthumb 17.294 80.3171
rfemur 7.78645 1.95872 31.9764
rtibia 24.8916
rfoot -17.9321 -17.7109
rtoes 6.56048
lfemur -24.3732 -4.83984 -14.3275
ltibia 27.6479
lfoot -3.29578 7.75211
ltoes -7.92164
278
root -0.0659904 18.0586 22.0101 -3.72497 -2.20969 -4.89224
lowerback 18.3647 0.271214 4.22184
upperback 0.43189 1.72069 4.6139
thorax -9.89949 0.74296 2.18821
lowerneck -10.3462 -0.748749 -3.4261
upperneck 17.7206 -0.150994 -1.38679
head 7.14094 -0.421942 0.10494
rclavicle 9.93923e-016 3.97569e-015
rhumerus -67.5077 -37.2803 -36.3858
rradius 63.1472
rwrist -60.53
rhand -6.66269 -6.33745
rfingers 7.12502
rthumb 19.1952 -35.4102
lclavicle 9.93923e-016 3.97569e-015
lhumerus -63.1553 20.6906 61.1336
lradius 29.2432
lwrist 3.13313
lhand -8.31379 52.5552
lfingers 7.12502
lthumb 17.6069 81.778
rfemur 8.34714 1.7936 32.2047
rtibia 24.2868
rfoot -17.2104 -18.0541
rtoes 3.15861
lfemur -24.5151 -6.42061 -13.5466
ltibia 25.1724
lfoot -2.623 9.07965
ltoes -7.47001
279
root -0.0577124 18.058 22.2028 -3.52183 -2.73429 -5.35913
lowerback 18.4343 0.270985 4.50443
upperback 0.472698 1.79437 4.73958
thorax -9.89098 0.767606 2.14626
lowerneck -10.8518 -0.692871 -3.49233
upperneck 17.7498 -0.0652272 -1.24756
head 7.23912 -0.375809 0.167419
rclavicle -5.36719e-015 -4.29375e-014
rhumerus -68.4041 -37.8299 -34.7302
rradius 64.5798
rwrist -60.9023
rhand -3.80332 -5.71137
rfingers 7.12502
rthumb 21.9428 -34.4869
lclavicle -5.36719e-015 -4.29375e-014
lhumerus -63.7359 21.3415 60.4785
lradius 28.8574
lwrist 2.40682
lhand -8.30796 51.5672
lfingers 7.12502
lthumb 17.6125 80.7894
rfemur 9.06173 1.98338 32.6809
rtibia 23.7503
rfoot -16.5146 -18.1179
rtoes 1.29009
lfemur -24.4935 -8.09124 -12.3492
ltibia 23.0487
lfoot -2.58935 11.0797
ltoes -7.73185
280
root -0.027064 18.054 22.4268 -3.44831 -4.0686 -5.32591
lowerback 18.2031 0.55479 4.53473
upperback 0.707209 2.12667 4.6279
thorax -9.49624 0.926133 1.91474
lowerneck -11.1537 -0.595088 -3.39871
upperneck 17.5042 0.0542161 -1.21955
head 7.21076 -0.307398 0.171815
rclavicle -1.95803e-014 -2.22639e-014
rhumerus -69.4019 -39.3323 -32.1177
rradius 64.837
rwrist -59.5976
rhand -0.665486 -5.16214
rfingers 7.12502
rthumb 24.9528 -33.5529
lclavicle -1.95803e-014 -2.22639e-014
lhumerus -64.0927 21.7262 60.1441
lradius 28.6064
lwrist 2.38745
lhand -8.47926 51.3714
lfingers 7.12502
lthumb 17.4476 80.6084
rfemur 10.1289 2.47362 32.3005
rtibia 23.29
rfoot -16.2509 -17.2762
rtoes 1.25365
lfemur -24.1194 -9.5007 -11.6958
ltibia 21.3012
lfoot -3.5181 13.8068
ltoes -7.9205
281
root -0.018229 18.0427 22.635 -3.14144 -4.24943 -5.06141
lowerback 17.8101 0.526884 4.20857
upperback 0.770071 1.97547 4.49928
thorax -9.21058 0.869334 1.99762
lowerneck -11.314 -0.491444 -3.28701
upperneck 17.0871 0.180316 -1.258
head 7.10185 -0.237244 0.152812
rclavicle 8.74653e-015 3.26007e-014
rhumerus -70.4906 -40.7713 -29.4657
rradius 65.3158
rwrist -58.5611
rhand 2.06997 -4.97642
rfingers 7.12502
rthumb 27.5715 -32.9769
lclavicle 8.74653e-015 3.26007e-014
lhumerus -64.3985 22.0463 59.9632
lradius 28.4254
lwrist 2.53043
lhand -8.44024 51.7806
lfingers 7.12502
lthumb 17.4852 81.0142
rfemur 10.8061 2.41337 31.8182
rtibia 22.8836
rfoot -16.2903 -16.8462
rtoes 1.84669
lfemur -24.5596 -10.4656 -11.5574
ltibia 20.1303
lfoot -4.62695 15.218
ltoes -8.22814
282
root -0.00251109 18.0338 22.8391 -3.23558 -5.29591 -4.94425
lowerback 18.1737 0.766149 3.91837
upperback 0.792393 2.24994 4.43787
thorax -9.39928 1.00836 2.02271
lowerneck -11.2753 -0.372649 -3.31048
upperneck 16.88 0.312665 -1.10512
head 7.02575 -0.158409 0.218673
rclavicle -1.63997e-014 -3.73715e-014
rhumerus -71.69 -41.7017 -26.9358
rradius 66.0713
rwrist -57.8935
rhand 4.92696 -4.74071
rfingers 7.12502
rthumb 30.3003 -32.2732
lclavicle -1.63997e-014 -3.73715e-014
lhumerus -64.9396 22.3812 59.4852
lradius 28.0378
lwrist 2.43373
lhand -8.42523 51.4221
lfingers 7.12502
lthumb 17.4996 80.6544
rfemur 11.7575 3.21864 31.631
rtibia 22.6397
rfoot -15.5278 -16.6877
rtoes -0.060008
lfemur -24.385 -11.4226 -11.1276
ltibia 19.3039
lfoot -6.6327 17.5603
ltoes -7.43683
283
root 0.0159363 18.0177 23.051 -3.04478 -5.44543 -5.07242
lowerback 18.0468 0.652918 4.0193
upperback 0.734206 2.1133 4.41481
thorax -9.3865 0.938093 1.97698
lowerneck -11.4398 -0.280744 -3.43855
upperneck 16.923 0.401869 -0.733995
head 7.06576 -0.0924294 0.368191
rclavicle -3.61788e-014 -6.83819e-014
rhumerus -72.8163 -42.5402 -24.5632
rradius 66.9835
rwrist -57.2399
rhand 7.6091 -4.1831
rfingers 7.12502
rthumb 32.8553 -31.2137
lclavicle -3.61788e-014 -6.83819e-014
lhumerus -65.492 22.9241 58.7384
lradius 27.6537
lwrist 2.01812
lhand -8.42222 51.3706
lfingers 7.12502
lthumb 17.5025 80.6027
rfemur 12.2919 3.04733 31.5225
rtibia 22.69
rfoot -15.0357 -16.3325
rtoes -2.17849
lfemur -24.5563 -11.2807 -11.0409
ltibia 18.7842
lfoot -8.06774 17.8718
ltoes -8.88574
284
root 0.0375931 18.0029 23.2668 -2.90429 -5.87534 -4.99416
lowerback 17.4117 0.702517 3.94414
upperback 1.07863 2.08751 4.3422
thorax -8.65096 0.936929 1.946
lowerneck -11.4984 -0.0844936 -3.28076
upperneck 16.3429 0.637495 -0.76161
head 6.88515 0.0370133 0.354376
rclavicle -1.09332e-015 1.11319e-014
rhumerus -71.2834 -38.4511 -29.1602
rradius 71.993
rwrist -62.5878
rhand 4.60147 -3.27085
rfingers 7.12502
rthumb 29.9898 -30.86
lclavicle -1.09332e-015 1.11319e-014
lhumerus -65.4134 23.4004 58.7332
lradius 27.6928
lwrist 2.14324
lhand -8.58564 51.5489
lfingers 7.12502
lthumb 17.3453 80.7949
rfemur 12.7133 3.1486 31.1838
rtibia 23.0354
rfoot -14.6021 -15.9641
rtoes -4.5627
lfemur -24.7134 -10.7933 -11.2441
ltibia 18.6648
lfoot -8.84099 17.9158
ltoes -10.1902
